<svg xmlns="http://www.w3.org/2000/svg" enable-background="new 0 0 32 32" viewBox="0 0 32 32" id="resize"><g><path fill="#6621ba" d="M16,1.1C7.784,1.1,1.1,7.784,1.1,16S7.784,30.9,16,30.9S30.9,24.216,30.9,16S24.216,1.1,16,1.1z M16,29.1
		C8.777,29.1,2.9,23.223,2.9,16S8.777,2.9,16,2.9S29.1,8.777,29.1,16S23.223,29.1,16,29.1z"></path><path fill="#f98a17" d="M21.375,9.725h-3.128c-0.497,0-0.9,0.403-0.9,0.9s0.403,0.9,0.9,0.9h0.956l-7.678,7.678v-0.956
		c0-0.497-0.403-0.9-0.9-0.9s-0.9,0.403-0.9,0.9v3.128c0,0.497,0.403,0.9,0.9,0.9h3.128c0.497,0,0.9-0.403,0.9-0.9
		s-0.403-0.9-0.9-0.9h-0.956l7.678-7.678v0.956c0,0.497,0.403,0.9,0.9,0.9s0.9-0.403,0.9-0.9v-3.128
		C22.275,10.128,21.872,9.725,21.375,9.725z"></path></g></svg>